<svg width="24" height="24" viewBox="0 0 24 24" fill="none" xmlns="http://www.w3.org/2000/svg">
<path fill-rule="evenodd" clip-rule="evenodd" d="M2 6C2 5.44769 2.44727 5 3 5H21C21.5527 5 22 5.44769 22 6C22 6.55231 21.5527 7 21 7H3C2.44727 7 2 6.55231 2 6ZM2 12C2 11.4477 2.44727 11 3 11H21C21.5527 11 22 11.4477 22 12C22 12.5523 21.5527 13 21 13H3C2.44727 13 2 12.5523 2 12ZM3 17C2.44727 17 2 17.4477 2 18C2 18.5523 2.44727 19 3 19H21C21.5527 19 22 18.5523 22 18C22 17.4477 21.5527 17 21 17H3Z" fill="white" fill-opacity="0.4"/>
</svg>
