<svg width="240" height="136" viewBox="0 0 240 136" fill="none" xmlns="http://www.w3.org/2000/svg">
<g filter="url(#filter0_f)">
<path d="M93.1525 48C45.5593 48 24 104 24 104H216C216 104 181.424 104 154.169 83C126.915 62 122.441 48 93.1525 48Z" fill="url(#paint0_linear)"/>
</g>
<g filter="url(#filter1_d)">
<path d="M24 104C24 104 45.5593 48 93.1525 48C122.441 48 126.915 62 154.169 83C181.424 104 216 104 216 104" stroke="url(#paint1_linear)" stroke-width="4" stroke-linecap="round" stroke-linejoin="round"/>
</g>
<g filter="url(#filter2_d)">
<circle cx="90" cy="48" r="12" fill="white"/>
</g>
<circle cx="90" cy="48" r="6" fill="#57D6E1"/>
<path opacity="0.4" d="M6.23438 128.242C5.59896 128.914 4.85677 129.25 4.00781 129.25C3.00781 129.25 2.21094 128.901 1.61719 128.203C1.02344 127.5 0.726562 126.578 0.726562 125.438C0.726562 124.688 0.877604 124.008 1.17969 123.398C1.48177 122.789 1.91146 122.315 2.46875 121.977C3.02604 121.638 3.67188 121.469 4.40625 121.469C5.55208 121.469 6.46094 121.896 7.13281 122.75C7.80469 123.604 8.14062 124.747 8.14062 126.18V126.711C8.14062 128.763 7.67708 130.328 6.75 131.406C5.82292 132.484 4.4401 133.031 2.60156 133.047H2.375V131.477H2.64844C3.76823 131.461 4.6276 131.193 5.22656 130.672C5.82552 130.146 6.16146 129.336 6.23438 128.242ZM4.40625 127.766C4.78646 127.766 5.14323 127.656 5.47656 127.438C5.8099 127.219 6.06771 126.917 6.25 126.531V125.789C6.25 124.951 6.07812 124.276 5.73438 123.766C5.39062 123.255 4.94531 123 4.39844 123C3.85156 123 3.41406 123.227 3.08594 123.68C2.76302 124.128 2.60156 124.695 2.60156 125.383C2.60156 126.096 2.76562 126.672 3.09375 127.109C3.42188 127.547 3.85938 127.766 4.40625 127.766ZM17.3594 128.211C17.3594 129.846 17.0521 131.081 16.4375 131.914C15.8281 132.742 14.8984 133.156 13.6484 133.156C12.4193 133.156 11.4922 132.753 10.8672 131.945C10.2474 131.133 9.92969 129.932 9.91406 128.344V126.375C9.91406 124.74 10.2188 123.513 10.8281 122.695C11.4427 121.878 12.3776 121.469 13.6328 121.469C14.8776 121.469 15.8047 121.867 16.4141 122.664C17.0286 123.461 17.3438 124.654 17.3594 126.242V128.211ZM15.4609 126.086C15.4609 125.018 15.3151 124.237 15.0234 123.742C14.7318 123.242 14.2682 122.992 13.6328 122.992C13.013 122.992 12.5573 123.229 12.2656 123.703C11.974 124.172 11.8203 124.906 11.8047 125.906V128.484C11.8047 129.547 11.9531 130.339 12.25 130.859C12.5469 131.38 13.013 131.641 13.6484 131.641C14.2578 131.641 14.7083 131.401 15 130.922C15.2917 130.438 15.4453 129.682 15.4609 128.656V126.086ZM30.4375 128.211C30.4375 129.846 30.1302 131.081 29.5156 131.914C28.9062 132.742 27.9766 133.156 26.7266 133.156C25.4974 133.156 24.5703 132.753 23.9453 131.945C23.3255 131.133 23.0078 129.932 22.9922 128.344V126.375C22.9922 124.74 23.2969 123.513 23.9062 122.695C24.5208 121.878 25.4557 121.469 26.7109 121.469C27.9557 121.469 28.8828 121.867 29.4922 122.664C30.1068 123.461 30.4219 124.654 30.4375 126.242V128.211ZM28.5391 126.086C28.5391 125.018 28.3932 124.237 28.1016 123.742C27.8099 123.242 27.3464 122.992 26.7109 122.992C26.0911 122.992 25.6354 123.229 25.3438 123.703C25.0521 124.172 24.8984 124.906 24.8828 125.906V128.484C24.8828 129.547 25.0312 130.339 25.3281 130.859C25.625 131.38 26.0911 131.641 26.7266 131.641C27.3359 131.641 27.7865 131.401 28.0781 130.922C28.3698 130.438 28.5234 129.682 28.5391 128.656V126.086ZM39.5312 128.211C39.5312 129.846 39.224 131.081 38.6094 131.914C38 132.742 37.0703 133.156 35.8203 133.156C34.5911 133.156 33.6641 132.753 33.0391 131.945C32.4193 131.133 32.1016 129.932 32.0859 128.344V126.375C32.0859 124.74 32.3906 123.513 33 122.695C33.6146 121.878 34.5495 121.469 35.8047 121.469C37.0495 121.469 37.9766 121.867 38.5859 122.664C39.2005 123.461 39.5156 124.654 39.5312 126.242V128.211ZM37.6328 126.086C37.6328 125.018 37.487 124.237 37.1953 123.742C36.9036 123.242 36.4401 122.992 35.8047 122.992C35.1849 122.992 34.7292 123.229 34.4375 123.703C34.1458 124.172 33.9922 124.906 33.9766 125.906V128.484C33.9766 129.547 34.125 130.339 34.4219 130.859C34.7188 131.38 35.1849 131.641 35.8203 131.641C36.4297 131.641 36.8802 131.401 37.1719 130.922C37.4635 130.438 37.6172 129.682 37.6328 128.656V126.086ZM48.625 128.211C48.625 129.846 48.3177 131.081 47.7031 131.914C47.0938 132.742 46.1641 133.156 44.9141 133.156C43.6849 133.156 42.7578 132.753 42.1328 131.945C41.513 131.133 41.1953 129.932 41.1797 128.344V126.375C41.1797 124.74 41.4844 123.513 42.0938 122.695C42.7083 121.878 43.6432 121.469 44.8984 121.469C46.1432 121.469 47.0703 121.867 47.6797 122.664C48.2943 123.461 48.6094 124.654 48.625 126.242V128.211ZM46.7266 126.086C46.7266 125.018 46.5807 124.237 46.2891 123.742C45.9974 123.242 45.5339 122.992 44.8984 122.992C44.2786 122.992 43.8229 123.229 43.5312 123.703C43.2396 124.172 43.0859 124.906 43.0703 125.906V128.484C43.0703 129.547 43.2188 130.339 43.5156 130.859C43.8125 131.38 44.2786 131.641 44.9141 131.641C45.5234 131.641 45.974 131.401 46.2656 130.922C46.5573 130.438 46.7109 129.682 46.7266 128.656V126.086ZM59.8359 131.195H57.3203V133H55.3516V131.195H53.75V129.609H55.3516V128.773H53.75V127.188H55.3516V121.625H59.7031C60.9583 121.625 61.9609 121.953 62.7109 122.609C63.4609 123.26 63.8359 124.128 63.8359 125.211C63.8359 126.315 63.4792 127.182 62.7656 127.812C62.0521 128.438 61.0599 128.758 59.7891 128.773H57.3203V129.609H59.8359V131.195ZM57.3203 127.188H59.6719C60.3802 127.188 60.9219 127.023 61.2969 126.695C61.6719 126.367 61.8594 125.878 61.8594 125.227C61.8594 124.643 61.6745 124.167 61.3047 123.797C60.9401 123.427 60.4349 123.234 59.7891 123.219H57.3203V127.188Z" fill="#170F39"/>
<path d="M42.7969 20H38.8359V7.39062L34.9453 8.52734V5.52734L42.4336 2.9375H42.7969V20ZM59.7891 13.0273C59.7891 15.332 59.2695 17.1094 58.2305 18.3594C57.1992 19.6094 55.7422 20.2344 53.8594 20.2344C51.9609 20.2344 50.4922 19.6055 49.4531 18.3477C48.4141 17.0898 47.8945 15.3164 47.8945 13.0273V9.91016C47.8945 7.60547 48.4102 5.82813 49.4414 4.57812C50.4805 3.32812 51.9453 2.70312 53.8359 2.70312C55.7266 2.70312 57.1914 3.33203 58.2305 4.58984C59.2695 5.84766 59.7891 7.625 59.7891 9.92188V13.0273ZM55.8398 9.40625C55.8398 8.17969 55.6797 7.26562 55.3594 6.66406C55.0391 6.05469 54.5312 5.75 53.8359 5.75C53.1562 5.75 52.6602 6.03125 52.3477 6.59375C52.043 7.15625 51.8789 8.00781 51.8555 9.14844V13.5078C51.8555 14.7812 52.0156 15.7148 52.3359 16.3086C52.6562 16.8945 53.1641 17.1875 53.8594 17.1875C54.5312 17.1875 55.0273 16.9023 55.3477 16.332C55.668 15.7539 55.832 14.8516 55.8398 13.625V9.40625ZM73.6875 13.0273C73.6875 15.332 73.168 17.1094 72.1289 18.3594C71.0977 19.6094 69.6406 20.2344 67.7578 20.2344C65.8594 20.2344 64.3906 19.6055 63.3516 18.3477C62.3125 17.0898 61.793 15.3164 61.793 13.0273V9.91016C61.793 7.60547 62.3086 5.82813 63.3398 4.57812C64.3789 3.32812 65.8438 2.70312 67.7344 2.70312C69.625 2.70312 71.0898 3.33203 72.1289 4.58984C73.168 5.84766 73.6875 7.625 73.6875 9.92188V13.0273ZM69.7383 9.40625C69.7383 8.17969 69.5781 7.26562 69.2578 6.66406C68.9375 6.05469 68.4297 5.75 67.7344 5.75C67.0547 5.75 66.5586 6.03125 66.2461 6.59375C65.9414 7.15625 65.7773 8.00781 65.7539 9.14844V13.5078C65.7539 14.7812 65.9141 15.7148 66.2344 16.3086C66.5547 16.8945 67.0625 17.1875 67.7578 17.1875C68.4297 17.1875 68.9258 16.9023 69.2461 16.332C69.5664 15.7539 69.7305 14.8516 69.7383 13.625V9.40625ZM93.5625 13.0273C93.5625 15.332 93.043 17.1094 92.0039 18.3594C90.9727 19.6094 89.5156 20.2344 87.6328 20.2344C85.7344 20.2344 84.2656 19.6055 83.2266 18.3477C82.1875 17.0898 81.668 15.3164 81.668 13.0273V9.91016C81.668 7.60547 82.1836 5.82813 83.2148 4.57812C84.2539 3.32812 85.7188 2.70312 87.6094 2.70312C89.5 2.70312 90.9648 3.33203 92.0039 4.58984C93.043 5.84766 93.5625 7.625 93.5625 9.92188V13.0273ZM89.6133 9.40625C89.6133 8.17969 89.4531 7.26562 89.1328 6.66406C88.8125 6.05469 88.3047 5.75 87.6094 5.75C86.9297 5.75 86.4336 6.03125 86.1211 6.59375C85.8164 7.15625 85.6523 8.00781 85.6289 9.14844V13.5078C85.6289 14.7812 85.7891 15.7148 86.1094 16.3086C86.4297 16.8945 86.9375 17.1875 87.6328 17.1875C88.3047 17.1875 88.8008 16.9023 89.1211 16.332C89.4414 15.7539 89.6055 14.8516 89.6133 13.625V9.40625ZM107.461 13.0273C107.461 15.332 106.941 17.1094 105.902 18.3594C104.871 19.6094 103.414 20.2344 101.531 20.2344C99.6328 20.2344 98.1641 19.6055 97.125 18.3477C96.0859 17.0898 95.5664 15.3164 95.5664 13.0273V9.91016C95.5664 7.60547 96.082 5.82813 97.1133 4.57812C98.1523 3.32812 99.6172 2.70312 101.508 2.70312C103.398 2.70312 104.863 3.33203 105.902 4.58984C106.941 5.84766 107.461 7.625 107.461 9.92188V13.0273ZM103.512 9.40625C103.512 8.17969 103.352 7.26562 103.031 6.66406C102.711 6.05469 102.203 5.75 101.508 5.75C100.828 5.75 100.332 6.03125 100.02 6.59375C99.7148 7.15625 99.5508 8.00781 99.5273 9.14844V13.5078C99.5273 14.7812 99.6875 15.7148 100.008 16.3086C100.328 16.8945 100.836 17.1875 101.531 17.1875C102.203 17.1875 102.699 16.9023 103.02 16.332C103.34 15.7539 103.504 14.8516 103.512 13.625V9.40625ZM121.359 13.0273C121.359 15.332 120.84 17.1094 119.801 18.3594C118.77 19.6094 117.312 20.2344 115.43 20.2344C113.531 20.2344 112.062 19.6055 111.023 18.3477C109.984 17.0898 109.465 15.3164 109.465 13.0273V9.91016C109.465 7.60547 109.98 5.82813 111.012 4.57812C112.051 3.32812 113.516 2.70312 115.406 2.70312C117.297 2.70312 118.762 3.33203 119.801 4.58984C120.84 5.84766 121.359 7.625 121.359 9.92188V13.0273ZM117.41 9.40625C117.41 8.17969 117.25 7.26562 116.93 6.66406C116.609 6.05469 116.102 5.75 115.406 5.75C114.727 5.75 114.23 6.03125 113.918 6.59375C113.613 7.15625 113.449 8.00781 113.426 9.14844V13.5078C113.426 14.7812 113.586 15.7148 113.906 16.3086C114.227 16.8945 114.734 17.1875 115.43 17.1875C116.102 17.1875 116.598 16.9023 116.918 16.332C117.238 15.7539 117.402 14.8516 117.41 13.625V9.40625ZM139.195 18.0195H135.527V20H131.414V18.0195H129.082V14.8555H131.414V14.2109H129.082V11.0352H131.414V2.9375H138.188C139.492 2.9375 140.648 3.17578 141.656 3.65234C142.672 4.12891 143.457 4.80859 144.012 5.69141C144.566 6.56641 144.844 7.55859 144.844 8.66797C144.844 10.3789 144.234 11.7305 143.016 12.7227C141.805 13.7148 140.168 14.2109 138.105 14.2109H135.527V14.8555H139.195V18.0195ZM135.527 11.0352H138.047C139.797 11.0352 140.672 10.2539 140.672 8.69141C140.672 7.92578 140.453 7.30859 140.016 6.83984C139.578 6.37109 138.98 6.13281 138.223 6.125H135.527V11.0352Z" fill="#57D6E1"/>
<path opacity="0.4" d="M171.992 133H170.102V123.867L167.312 124.82V123.219L171.75 121.586H171.992V133ZM178.141 126.445H179.297C179.88 126.44 180.341 126.289 180.68 125.992C181.023 125.695 181.195 125.266 181.195 124.703C181.195 124.161 181.052 123.742 180.766 123.445C180.484 123.143 180.052 122.992 179.469 122.992C178.958 122.992 178.539 123.141 178.211 123.438C177.883 123.729 177.719 124.112 177.719 124.586H175.82C175.82 124.003 175.974 123.471 176.281 122.992C176.594 122.513 177.026 122.141 177.578 121.875C178.135 121.604 178.758 121.469 179.445 121.469C180.581 121.469 181.471 121.755 182.117 122.328C182.768 122.896 183.094 123.688 183.094 124.703C183.094 125.214 182.93 125.695 182.602 126.148C182.279 126.596 181.859 126.935 181.344 127.164C181.969 127.378 182.443 127.714 182.766 128.172C183.094 128.63 183.258 129.177 183.258 129.812C183.258 130.833 182.906 131.646 182.203 132.25C181.505 132.854 180.586 133.156 179.445 133.156C178.352 133.156 177.456 132.865 176.758 132.281C176.06 131.698 175.711 130.922 175.711 129.953H177.609C177.609 130.453 177.776 130.859 178.109 131.172C178.448 131.484 178.901 131.641 179.469 131.641C180.057 131.641 180.521 131.484 180.859 131.172C181.198 130.859 181.367 130.406 181.367 129.812C181.367 129.214 181.19 128.753 180.836 128.43C180.482 128.107 179.956 127.945 179.258 127.945H178.141V126.445ZM192.453 128.211C192.453 129.846 192.146 131.081 191.531 131.914C190.922 132.742 189.992 133.156 188.742 133.156C187.513 133.156 186.586 132.753 185.961 131.945C185.341 131.133 185.023 129.932 185.008 128.344V126.375C185.008 124.74 185.312 123.513 185.922 122.695C186.536 121.878 187.471 121.469 188.727 121.469C189.971 121.469 190.898 121.867 191.508 122.664C192.122 123.461 192.438 124.654 192.453 126.242V128.211ZM190.555 126.086C190.555 125.018 190.409 124.237 190.117 123.742C189.826 123.242 189.362 122.992 188.727 122.992C188.107 122.992 187.651 123.229 187.359 123.703C187.068 124.172 186.914 124.906 186.898 125.906V128.484C186.898 129.547 187.047 130.339 187.344 130.859C187.641 131.38 188.107 131.641 188.742 131.641C189.352 131.641 189.802 131.401 190.094 130.922C190.385 130.438 190.539 129.682 190.555 128.656V126.086ZM205.531 128.211C205.531 129.846 205.224 131.081 204.609 131.914C204 132.742 203.07 133.156 201.82 133.156C200.591 133.156 199.664 132.753 199.039 131.945C198.419 131.133 198.102 129.932 198.086 128.344V126.375C198.086 124.74 198.391 123.513 199 122.695C199.615 121.878 200.549 121.469 201.805 121.469C203.049 121.469 203.977 121.867 204.586 122.664C205.201 123.461 205.516 124.654 205.531 126.242V128.211ZM203.633 126.086C203.633 125.018 203.487 124.237 203.195 123.742C202.904 123.242 202.44 122.992 201.805 122.992C201.185 122.992 200.729 123.229 200.438 123.703C200.146 124.172 199.992 124.906 199.977 125.906V128.484C199.977 129.547 200.125 130.339 200.422 130.859C200.719 131.38 201.185 131.641 201.82 131.641C202.43 131.641 202.88 131.401 203.172 130.922C203.464 130.438 203.617 129.682 203.633 128.656V126.086ZM214.625 128.211C214.625 129.846 214.318 131.081 213.703 131.914C213.094 132.742 212.164 133.156 210.914 133.156C209.685 133.156 208.758 132.753 208.133 131.945C207.513 131.133 207.195 129.932 207.18 128.344V126.375C207.18 124.74 207.484 123.513 208.094 122.695C208.708 121.878 209.643 121.469 210.898 121.469C212.143 121.469 213.07 121.867 213.68 122.664C214.294 123.461 214.609 124.654 214.625 126.242V128.211ZM212.727 126.086C212.727 125.018 212.581 124.237 212.289 123.742C211.997 123.242 211.534 122.992 210.898 122.992C210.279 122.992 209.823 123.229 209.531 123.703C209.24 124.172 209.086 124.906 209.07 125.906V128.484C209.07 129.547 209.219 130.339 209.516 130.859C209.812 131.38 210.279 131.641 210.914 131.641C211.523 131.641 211.974 131.401 212.266 130.922C212.557 130.438 212.711 129.682 212.727 128.656V126.086ZM223.719 128.211C223.719 129.846 223.411 131.081 222.797 131.914C222.188 132.742 221.258 133.156 220.008 133.156C218.779 133.156 217.852 132.753 217.227 131.945C216.607 131.133 216.289 129.932 216.273 128.344V126.375C216.273 124.74 216.578 123.513 217.188 122.695C217.802 121.878 218.737 121.469 219.992 121.469C221.237 121.469 222.164 121.867 222.773 122.664C223.388 123.461 223.703 124.654 223.719 126.242V128.211ZM221.82 126.086C221.82 125.018 221.674 124.237 221.383 123.742C221.091 123.242 220.628 122.992 219.992 122.992C219.372 122.992 218.917 123.229 218.625 123.703C218.333 124.172 218.18 124.906 218.164 125.906V128.484C218.164 129.547 218.312 130.339 218.609 130.859C218.906 131.38 219.372 131.641 220.008 131.641C220.617 131.641 221.068 131.401 221.359 130.922C221.651 130.438 221.805 129.682 221.82 128.656V126.086ZM234.93 131.195H232.414V133H230.445V131.195H228.844V129.609H230.445V128.773H228.844V127.188H230.445V121.625H234.797C236.052 121.625 237.055 121.953 237.805 122.609C238.555 123.26 238.93 124.128 238.93 125.211C238.93 126.315 238.573 127.182 237.859 127.812C237.146 128.438 236.154 128.758 234.883 128.773H232.414V129.609H234.93V131.195ZM232.414 127.188H234.766C235.474 127.188 236.016 127.023 236.391 126.695C236.766 126.367 236.953 125.878 236.953 125.227C236.953 124.643 236.768 124.167 236.398 123.797C236.034 123.427 235.529 123.234 234.883 123.219H232.414V127.188Z" fill="#170F39"/>
<defs>
<filter id="filter0_f" x="20" y="44" width="200" height="64" filterUnits="userSpaceOnUse" color-interpolation-filters="sRGB">
<feFlood flood-opacity="0" result="BackgroundImageFix"/>
<feBlend mode="normal" in="SourceGraphic" in2="BackgroundImageFix" result="shape"/>
<feGaussianBlur stdDeviation="2" result="effect1_foregroundBlur"/>
</filter>
<filter id="filter1_d" x="19.999" y="45" width="200.001" height="64.0005" filterUnits="userSpaceOnUse" color-interpolation-filters="sRGB">
<feFlood flood-opacity="0" result="BackgroundImageFix"/>
<feColorMatrix in="SourceAlpha" type="matrix" values="0 0 0 0 0 0 0 0 0 0 0 0 0 0 0 0 0 0 127 0"/>
<feOffset dy="1"/>
<feGaussianBlur stdDeviation="1"/>
<feColorMatrix type="matrix" values="0 0 0 0 0.593886 0 0 0 0 0.634498 0 0 0 0 1 0 0 0 0.24 0"/>
<feBlend mode="normal" in2="BackgroundImageFix" result="effect1_dropShadow"/>
<feBlend mode="normal" in="SourceGraphic" in2="effect1_dropShadow" result="shape"/>
</filter>
<filter id="filter2_d" x="75" y="34" width="30" height="30" filterUnits="userSpaceOnUse" color-interpolation-filters="sRGB">
<feFlood flood-opacity="0" result="BackgroundImageFix"/>
<feColorMatrix in="SourceAlpha" type="matrix" values="0 0 0 0 0 0 0 0 0 0 0 0 0 0 0 0 0 0 127 0"/>
<feOffset dy="1"/>
<feGaussianBlur stdDeviation="1.5"/>
<feColorMatrix type="matrix" values="0 0 0 0 0.32549 0 0 0 0 0.192157 0 0 0 0 0.568627 0 0 0 0.4 0"/>
<feBlend mode="normal" in2="BackgroundImageFix" result="effect1_dropShadow"/>
<feBlend mode="normal" in="SourceGraphic" in2="effect1_dropShadow" result="shape"/>
</filter>
<linearGradient id="paint0_linear" x1="105.187" y1="49.1421" x2="105.565" y2="103.999" gradientUnits="userSpaceOnUse">
<stop stop-color="#57D6E1" stop-opacity="0.4"/>
<stop offset="1" stop-color="#57D6E1" stop-opacity="0"/>
</linearGradient>
<linearGradient id="paint1_linear" x1="26.8475" y1="102.324" x2="220.475" y2="102.324" gradientUnits="userSpaceOnUse">
<stop stop-color="#533191"/>
<stop offset="0.235338" stop-color="#57D6E1"/>
<stop offset="0.426896" stop-color="#57D6E1"/>
<stop offset="0.737226" stop-color="#533191"/>
</linearGradient>
</defs>
</svg>
