<svg width="81" height="48" viewBox="0 0 81 48" fill="none" xmlns="http://www.w3.org/2000/svg">
<g opacity="0.8">
<path fill-rule="evenodd" clip-rule="evenodd" d="M4.69747 22.3964H9.09178V28.168C8.79891 28.2646 8.50326 28.3519 8.20525 28.4306C7.90724 28.5092 7.59816 28.5756 7.27722 28.6288C6.95668 28.682 6.62072 28.7237 6.26974 28.7543C5.91837 28.7849 5.54605 28.8 5.152 28.8C4.32357 28.8 3.58999 28.6769 2.95128 28.4306C2.31217 28.1847 1.77425 27.8189 1.3375 27.3343C0.900364 26.8497 0.56836 26.2506 0.341095 25.5372C0.11383 24.8242 0 24.0004 0 23.0665C0 22.1934 0.126478 21.4042 0.379038 20.6983C0.631599 19.9929 1.00392 19.3927 1.49639 18.8977C1.98886 18.4028 2.59517 18.0218 3.31491 17.7557C4.03464 17.4892 4.85912 17.3557 5.78834 17.3557C6.37923 17.3557 6.95786 17.4193 7.52346 17.546C8.08905 17.6731 8.60682 17.8379 9.07676 18.0409L8.29616 19.9293C7.95269 19.7569 7.56496 19.6123 7.13335 19.4955C6.70135 19.3788 6.24801 19.3204 5.77332 19.3204C5.25832 19.3204 4.7947 19.4105 4.38325 19.5905C3.9714 19.7708 3.61924 20.0258 3.32597 20.3559C3.0331 20.6856 2.8086 21.0844 2.65169 21.5511C2.49517 22.0183 2.41691 22.5386 2.41691 23.1122C2.41691 23.6604 2.47146 24.1617 2.57975 24.6161C2.68844 25.0705 2.85879 25.4626 3.0912 25.7923C3.3236 26.1223 3.6228 26.3786 3.98919 26.5613C4.35519 26.744 4.79351 26.8354 5.30377 26.8354C5.63696 26.8354 5.91837 26.8203 6.1484 26.7897C6.37804 26.7595 6.59424 26.7237 6.79621 26.6832V24.3611H4.69747V22.3964ZM14.4537 21.6274C14.0446 21.6274 13.7051 21.772 13.4347 22.0615C13.1648 22.3507 13.0095 22.8051 12.9688 23.4244H15.9161C15.9109 23.1654 15.8781 22.9267 15.8177 22.7086C15.7572 22.4901 15.6659 22.3011 15.5449 22.1414C15.4236 21.9813 15.2722 21.8558 15.0904 21.7644C14.9086 21.6731 14.6964 21.6274 14.4537 21.6274ZM14.7494 28.8C14.1431 28.8 13.585 28.711 13.0751 28.5335C12.5649 28.3559 12.1254 28.0882 11.7566 27.7303C11.3878 27.3724 11.1013 26.9208 10.8969 26.375C10.6922 25.8292 10.5898 25.1885 10.5898 24.4524C10.5898 23.7061 10.6835 23.0538 10.8705 22.4953C11.057 21.9368 11.3187 21.4713 11.6546 21.0983C11.9902 20.7249 12.3945 20.4445 12.8668 20.257C13.3388 20.0691 13.8629 19.975 14.4387 19.975C14.9996 19.975 15.5059 20.06 15.9576 20.23C16.4098 20.4004 16.7936 20.6502 17.1094 20.9803C17.4252 21.31 17.6675 21.7148 17.8366 22.1946C18.0058 22.6745 18.0904 23.2238 18.0904 23.8431V24.97H12.9234C12.9336 25.2949 12.9854 25.5881 13.0787 25.8495C13.1724 26.1108 13.3036 26.3317 13.4727 26.512C13.6419 26.692 13.8466 26.8306 14.0866 26.9271C14.3265 27.0232 14.6004 27.0717 14.9087 27.0717C15.166 27.0717 15.4098 27.0578 15.6395 27.0296C15.8695 27.0018 16.0928 26.9601 16.3102 26.9041C16.5272 26.8481 16.7418 26.7786 16.9541 26.6947C17.1663 26.6109 17.3833 26.5132 17.6058 26.4016V28.1986C17.4038 28.3051 17.2003 28.3952 16.9959 28.4687C16.7912 28.5422 16.5754 28.6046 16.3481 28.6554C16.1209 28.7063 15.8758 28.7428 15.613 28.7658C15.3505 28.7885 15.0624 28.8 14.7494 28.8ZM22.9527 21.6274C22.5436 21.6274 22.2037 21.772 21.9338 22.0615C21.6634 22.3507 21.5081 22.8051 21.4678 23.4244H24.4147C24.41 23.1654 24.3772 22.9267 24.3163 22.7086C24.2558 22.4901 24.1649 22.3011 24.0436 22.1414C23.9222 21.9813 23.7709 21.8558 23.589 21.7644C23.4072 21.6731 23.195 21.6274 22.9527 21.6274ZM23.248 28.8C22.6421 28.8 22.084 28.711 21.5738 28.5335C21.0635 28.3559 20.6244 28.0882 20.2556 27.7303C19.8869 27.3724 19.6003 26.9208 19.3956 26.375C19.1908 25.8292 19.0889 25.1885 19.0889 24.4524C19.0889 23.7061 19.1821 23.0538 19.3691 22.4953C19.556 21.9368 19.8173 21.4713 20.1533 21.0983C20.4892 20.7249 20.8932 20.4445 21.3655 20.257C21.8378 20.0691 22.3619 19.975 22.9374 19.975C23.4982 19.975 24.0045 20.06 24.4567 20.23C24.9088 20.4004 25.2926 20.6502 25.6084 20.9803C25.9238 21.31 26.1665 21.7148 26.3357 22.1946C26.5048 22.6745 26.5894 23.2238 26.5894 23.8431V24.97H21.4224C21.4323 25.2949 21.484 25.5881 21.5777 25.8495C21.671 26.1108 21.8022 26.3317 21.9714 26.512C22.1409 26.692 22.3453 26.8306 22.5852 26.9271C22.8251 27.0232 23.099 27.0717 23.4073 27.0717C23.665 27.0717 23.9085 27.0578 24.1385 27.0296C24.3681 27.0018 24.5918 26.9601 24.8088 26.9041C25.0262 26.8481 25.2408 26.7786 25.4531 26.6947C25.6649 26.6109 25.8823 26.5132 26.1044 26.4016V28.1986C25.9025 28.3051 25.6993 28.3952 25.4946 28.4687C25.2898 28.5422 25.074 28.6046 24.8468 28.6554C24.6195 28.7063 24.3745 28.7428 24.112 28.7658C23.8492 28.7885 23.5614 28.8 23.248 28.8ZM30.2461 24.0183L31.0946 22.7237L33.1629 20.135H35.7692L32.7084 23.828L35.9664 28.6479H33.2993L31.2389 25.3736L30.337 25.998V28.6479H28.0264V16.8H30.337V22.0842L30.216 24.0183H30.2461ZM37.2383 17.5158H40.4813C41.1781 17.5158 41.7891 17.5651 42.3148 17.6644C42.8401 17.7633 43.2792 17.923 43.6329 18.1438C43.9863 18.3647 44.2531 18.6538 44.4321 19.0117C44.6115 19.3696 44.7013 19.8101 44.7013 20.3329C44.7013 20.6479 44.6633 20.9422 44.5874 21.2163C44.5116 21.4904 44.4005 21.7315 44.2542 21.9396C44.1076 22.1478 43.9298 22.3218 43.7199 22.4612C43.5104 22.6006 43.2693 22.6936 42.9966 22.7392V22.8151C43.2744 22.8763 43.5329 22.9637 43.7732 23.0781C44.0131 23.1921 44.2226 23.3494 44.4021 23.55C44.5811 23.7506 44.7226 24.0032 44.8262 24.3075C44.9297 24.6121 44.9815 24.9827 44.9815 25.4193C44.9815 25.9269 44.893 26.3802 44.7163 26.7786C44.5396 27.177 44.2859 27.5146 43.955 27.7911C43.6242 28.0679 43.2227 28.2797 42.7503 28.427C42.278 28.574 41.7437 28.6479 41.148 28.6479H37.2383V17.5158ZM39.5879 21.9245H40.8076C41.1005 21.9245 41.3455 21.8975 41.5424 21.8443C41.7396 21.791 41.8985 21.7112 42.0198 21.6043C42.1412 21.4979 42.2281 21.3648 42.2811 21.2047C42.334 21.0451 42.3609 20.8584 42.3609 20.6451C42.3609 20.2188 42.2281 19.913 41.9629 19.7275C41.6977 19.5424 41.2772 19.4498 40.7017 19.4498H39.5879V21.9245ZM39.5879 23.7974V26.6983H40.9665C41.2748 26.6983 41.5337 26.663 41.7432 26.5919C41.953 26.5208 42.1222 26.4195 42.251 26.2872C42.3799 26.1553 42.472 25.9952 42.5273 25.8078C42.583 25.6199 42.6107 25.4117 42.6107 25.1833C42.6107 24.9752 42.583 24.7861 42.5273 24.6161C42.472 24.4461 42.3771 24.2999 42.2431 24.1784C42.1095 24.0564 41.9341 23.9623 41.7167 23.8963C41.4997 23.8304 41.2293 23.7974 40.906 23.7974H39.5879ZM50.9198 19.975C50.9806 19.975 51.0474 19.9762 51.1206 19.9789C51.1941 19.9813 51.2648 19.9865 51.3328 19.994C51.4012 20.0016 51.464 20.0095 51.5221 20.0171C51.5802 20.0246 51.6245 20.0334 51.6549 20.0437V22.2213C51.6142 22.2113 51.5589 22.201 51.4881 22.1907C51.4174 22.1807 51.3431 22.172 51.2648 22.1641C51.1862 22.1565 51.1095 22.1513 51.0336 22.149C50.9577 22.1466 50.8945 22.145 50.8443 22.145C50.5463 22.145 50.272 22.1831 50.0222 22.2594C49.772 22.3357 49.5574 22.4588 49.3779 22.6288C49.1989 22.7988 49.0598 23.022 48.9613 23.2985C48.8629 23.5754 48.8135 23.9142 48.8135 24.3154V28.6479H46.5029V20.1351H48.2531L48.5938 21.4141H48.7076C48.8289 21.196 48.9602 20.9978 49.1017 20.8203C49.2432 20.6427 49.4009 20.4918 49.5752 20.367C49.7495 20.2427 49.9463 20.1466 50.166 20.0779C50.3858 20.0095 50.6372 19.975 50.9198 19.975ZM57.4865 28.6478L57.0394 27.4903H56.9711C56.8043 27.7187 56.6379 27.9153 56.4711 28.0806C56.3043 28.2454 56.1225 28.3813 55.9256 28.4877C55.7284 28.5942 55.5075 28.6732 55.2628 28.7237C55.0178 28.7745 54.7336 28.8 54.4103 28.8C54.0668 28.8 53.7486 28.7455 53.4558 28.6363C53.1629 28.5271 52.9088 28.3622 52.6941 28.1414C52.4795 27.9205 52.3115 27.6413 52.1906 27.3036C52.0693 26.9664 52.0088 26.5664 52.0088 26.1044C52.0088 25.2011 52.2965 24.5346 52.8724 24.1056C53.4483 23.677 54.3095 23.4395 55.4557 23.3938L56.8043 23.3481V22.7086C56.8043 22.3582 56.7035 22.0993 56.5015 21.932C56.2995 21.7644 56.0166 21.6806 55.6529 21.6806C55.2893 21.6806 54.9344 21.7338 54.5885 21.8407C54.2423 21.9471 53.8953 22.0893 53.5467 22.2669L52.7965 20.7289C53.221 20.4901 53.6905 20.3026 54.2056 20.1652C54.7209 20.0282 55.2612 19.9598 55.8272 19.9598C56.8825 19.9598 57.692 20.2085 58.2552 20.7062C58.8184 21.2035 59.1002 21.9598 59.1002 22.9751V28.6478H57.4865ZM56.8043 24.7035L56.0391 24.7341C55.7312 24.744 55.4711 24.7849 55.2589 24.856C55.0467 24.9267 54.8763 25.0221 54.7475 25.1412C54.6186 25.2608 54.5253 25.403 54.4672 25.5678C54.4091 25.7327 54.3799 25.9166 54.3799 26.12C54.3799 26.4751 54.466 26.7277 54.6376 26.8775C54.8095 27.0272 55.034 27.1019 55.3119 27.1019C55.5241 27.1019 55.7209 27.0654 55.9028 26.9915C56.0846 26.918 56.2427 26.8088 56.3763 26.6642C56.5102 26.5196 56.615 26.342 56.6909 26.1311C56.7668 25.9206 56.8043 25.6783 56.8043 25.4042V24.7035ZM60.8633 17.9344C60.8633 17.7164 60.8961 17.5348 60.9617 17.3899C61.0273 17.2453 61.117 17.1285 61.2305 17.0399C61.3443 16.9509 61.4783 16.889 61.632 16.8532C61.7862 16.8179 61.949 16.8 62.1209 16.8C62.2925 16.8 62.4541 16.8179 62.6059 16.8532C62.7573 16.889 62.8901 16.9509 63.0035 17.0399C63.1174 17.1285 63.2083 17.2453 63.2762 17.3899C63.3446 17.5348 63.3786 17.7164 63.3786 17.9344C63.3786 18.1478 63.3446 18.3277 63.2762 18.4751C63.2083 18.6224 63.1174 18.7404 63.0035 18.829C62.8901 18.918 62.7573 18.9815 62.6059 19.0197C62.4541 19.0574 62.2925 19.0765 62.1209 19.0765C61.949 19.0765 61.7862 19.0574 61.632 19.0197C61.4783 18.9815 61.3443 18.918 61.2305 18.829C61.117 18.7404 61.0273 18.6224 60.9617 18.4751C60.8961 18.3277 60.8633 18.1478 60.8633 17.9344ZM60.9619 28.6479H63.2729V20.1351H60.9619V28.6479ZM72.5288 28.6479H70.2178V23.6755C70.2178 23.0614 70.1258 22.6006 69.9416 22.2935C69.757 21.9865 69.4629 21.8328 69.059 21.8328C68.7559 21.8328 68.5033 21.8939 68.3013 22.0159C68.099 22.1374 67.9389 22.3178 67.8199 22.5565C67.7013 22.7948 67.6168 23.0892 67.5662 23.4395C67.5156 23.7899 67.4903 24.1907 67.4903 24.6427V28.6479H65.1797V20.1351H66.9448L67.2555 21.2238H67.3844C67.5057 21.0054 67.6535 20.8179 67.8278 20.6602C68.0017 20.5029 68.1926 20.3734 68.3997 20.2721C68.6068 20.1704 68.8266 20.0957 69.059 20.0473C69.291 19.9992 69.5285 19.975 69.7708 19.975C70.1851 19.975 70.5613 20.0346 70.8997 20.1541C71.2384 20.2733 71.5289 20.46 71.7712 20.7138C72.0134 20.9676 72.2004 21.291 72.3316 21.6846C72.4632 22.0779 72.5288 22.5486 72.5288 23.0971V28.6479ZM80.0349 26.12C80.0349 26.5664 79.9543 26.9573 79.7926 27.2926C79.631 27.6274 79.4009 27.9067 79.1029 28.1299C78.8049 28.3531 78.4441 28.5208 78.0196 28.6324C77.5955 28.744 77.1208 28.8 76.5951 28.8C76.3177 28.8 76.06 28.7913 75.8224 28.7734C75.5853 28.7555 75.3604 28.7265 75.1481 28.6856C74.9359 28.6451 74.7315 28.5942 74.5343 28.5335C74.3375 28.4727 74.1379 28.3964 73.9359 28.3051V26.3861C74.1482 26.4929 74.3715 26.5895 74.6066 26.6757C74.8414 26.7619 75.075 26.8369 75.3074 26.9001C75.5398 26.9637 75.7655 27.0133 75.9853 27.0487C76.205 27.0844 76.4086 27.1019 76.5951 27.1019C76.8022 27.1019 76.9793 27.0828 77.1255 27.0451C77.2722 27.007 77.3919 26.9537 77.4856 26.885C77.5789 26.8167 77.6473 26.7353 77.6899 26.6415C77.733 26.5474 77.7544 26.4473 77.7544 26.3408C77.7544 26.234 77.7382 26.139 77.7054 26.0552C77.6725 25.9714 77.5978 25.8824 77.4816 25.7887C77.3654 25.6945 77.1951 25.5881 76.9702 25.4689C76.7457 25.3494 76.4437 25.2036 76.0651 25.0308C75.6963 24.8636 75.3766 24.6971 75.1066 24.5323C74.8363 24.3674 74.6142 24.1831 74.4398 23.9801C74.2655 23.7772 74.1355 23.5448 74.0498 23.2834C73.9636 23.022 73.9209 22.711 73.9209 22.3507C73.9209 21.9547 73.9968 21.6083 74.1482 21.3112C74.2995 21.0145 74.5142 20.767 74.792 20.5688C75.0699 20.371 75.4046 20.2224 75.7959 20.1235C76.1876 20.0246 76.6232 19.975 77.103 19.975C77.6081 19.975 78.088 20.0334 78.5425 20.1501C78.997 20.2669 79.4642 20.4421 79.944 20.6757L79.2472 22.3202C78.863 22.1374 78.497 21.9877 78.1484 21.8709C77.7998 21.7541 77.4512 21.6957 77.103 21.6957C76.7896 21.6957 76.5639 21.7517 76.4248 21.8634C76.286 21.975 76.2165 22.1275 76.2165 22.3202C76.2165 22.4218 76.2343 22.512 76.2694 22.5907C76.305 22.6693 76.3758 22.7503 76.4817 22.8342C76.5876 22.918 76.7366 23.0093 76.9287 23.1082C77.1208 23.2075 77.3706 23.3279 77.6789 23.4701C78.0374 23.6274 78.3607 23.7835 78.6484 23.9384C78.9365 24.0929 79.184 24.2697 79.3911 24.4675C79.5982 24.6653 79.7571 24.8965 79.8681 25.1603C79.9796 25.4244 80.0349 25.7442 80.0349 26.12Z" fill="white"/>
</g>
</svg>
