<svg width="107" height="32" viewBox="0 0 107 32" fill="none" xmlns="http://www.w3.org/2000/svg">
<path d="M6.2801 15.4619H12.1549V23.1574C11.7634 23.2861 11.3681 23.4026 10.9697 23.5074C10.5713 23.6123 10.1581 23.7008 9.729 23.7717C9.30047 23.8427 8.85132 23.8983 8.3821 23.9391C7.91234 23.9799 7.41459 24 6.88777 24C5.78023 24 4.79951 23.8358 3.9456 23.5074C3.09117 23.1796 2.37201 22.6918 1.78812 22.0457C1.20371 21.3995 0.759847 20.6009 0.456014 19.6497C0.152181 18.699 0 17.6005 0 16.3554C0 15.1913 0.16909 14.1389 0.506741 13.1977C0.844392 12.2571 1.34215 11.4569 2.00054 10.797C2.65894 10.137 3.46951 9.62913 4.43174 9.27428C5.39396 8.9189 6.49622 8.74095 7.7385 8.74095C8.52847 8.74095 9.30205 8.82569 10.0582 8.99464C10.8143 9.16412 11.5066 9.38391 12.1348 9.65455L11.0912 12.1724C10.632 11.9425 10.1137 11.7498 9.53666 11.594C8.95912 11.4383 8.35303 11.3605 7.71842 11.3605C7.02991 11.3605 6.41009 11.4807 5.86002 11.7206C5.30942 11.9611 4.83861 12.3011 4.44653 12.7412C4.05498 13.1808 3.75485 13.7125 3.54507 14.3349C3.33582 14.9577 3.2312 15.6515 3.2312 16.4163C3.2312 17.1472 3.30412 17.8156 3.4489 18.4215C3.59421 19.0273 3.82196 19.5501 4.13266 19.9897C4.44336 20.4298 4.84337 20.7714 5.3332 21.015C5.8225 21.2587 6.4085 21.3805 7.09067 21.3805C7.53612 21.3805 7.91234 21.3603 8.21988 21.3196C8.52688 21.2793 8.81592 21.2316 9.08593 21.1776V18.0814H6.2801V15.4619ZM19.3233 14.4365C18.7764 14.4365 18.3225 14.6293 17.961 15.0154C17.6001 15.401 17.3925 16.0069 17.338 16.8326H21.2784C21.2715 16.4873 21.2276 16.169 21.1468 15.8782C21.0659 15.5869 20.9439 15.3348 20.7822 15.1219C20.62 14.9084 20.4176 14.7411 20.1745 14.6193C19.9315 14.4975 19.6477 14.4365 19.3233 14.4365ZM19.7185 24C18.9079 24 18.1618 23.8814 17.4802 23.6446C16.798 23.4079 16.2104 23.0509 15.7174 22.5737C15.2244 22.0965 14.8413 21.4943 14.5681 20.7666C14.2944 20.0389 14.1576 19.1846 14.1576 18.2032C14.1576 17.2081 14.2828 16.3384 14.5327 15.5938C14.7821 14.8491 15.1319 14.2284 15.5811 13.7311C16.0297 13.2332 16.5703 12.8593 17.2017 12.6093C17.8326 12.3588 18.5333 12.2333 19.3032 12.2333C20.053 12.2333 20.7299 12.3466 21.3338 12.5733C21.9383 12.8005 22.4514 13.1337 22.8736 13.5738C23.2958 14.0134 23.6197 14.5531 23.8459 15.1928C24.072 15.8326 24.1851 16.5651 24.1851 17.3908V18.8933H17.2773C17.291 19.3266 17.3602 19.7174 17.4849 20.0659C17.6102 20.4144 17.7856 20.7089 18.0118 20.9494C18.2379 21.1893 18.5116 21.3741 18.8324 21.5028C19.1531 21.631 19.5193 21.6956 19.9315 21.6956C20.2754 21.6956 20.6015 21.6771 20.9085 21.6395C21.216 21.6024 21.5146 21.5468 21.8052 21.4721C22.0953 21.3974 22.3822 21.3047 22.666 21.193C22.9497 21.0812 23.2398 20.9509 23.5373 20.8021V23.1981C23.2673 23.3401 22.9952 23.4603 22.722 23.5583C22.4483 23.6563 22.1597 23.7394 21.8559 23.8072C21.5521 23.875 21.2245 23.9237 20.8731 23.9545C20.5222 23.9846 20.137 24 19.7185 24ZM30.6856 14.4365C30.1387 14.4365 29.6842 14.6293 29.3233 15.0154C28.9619 15.401 28.7542 16.0069 28.7003 16.8326H32.6401C32.6338 16.4873 32.5899 16.169 32.5086 15.8782C32.4277 15.5869 32.3062 15.3348 32.144 15.1219C31.9817 14.9084 31.7794 14.7411 31.5363 14.6193C31.2932 14.4975 31.0095 14.4365 30.6856 14.4365ZM31.0803 24C30.2702 24 29.5241 23.8814 28.842 23.6446C28.1598 23.4079 27.5727 23.0509 27.0797 22.5737C26.5867 22.0965 26.2036 21.4943 25.9299 20.7666C25.6562 20.0389 25.5199 19.1846 25.5199 18.2032C25.5199 17.2081 25.6446 16.3384 25.8945 15.5938C26.1444 14.8491 26.4937 14.2284 26.9429 13.7311C27.392 13.2332 27.932 12.8593 28.5635 12.6093C29.1949 12.3588 29.8956 12.2333 30.665 12.2333C31.4148 12.2333 32.0917 12.3466 32.6961 12.5733C33.3006 12.8005 33.8137 13.1337 34.2359 13.5738C34.6576 14.0134 34.982 14.5531 35.2082 15.1928C35.4343 15.8326 35.5474 16.5651 35.5474 17.3908V18.8933H28.6396C28.6528 19.3266 28.722 19.7174 28.8472 20.0659C28.9719 20.4144 29.1474 20.7089 29.3735 20.9494C29.6002 21.1893 29.8734 21.3741 30.1941 21.5028C30.5149 21.631 30.8811 21.6956 31.2932 21.6956C31.6378 21.6956 31.9632 21.6771 32.2708 21.6395C32.5778 21.6024 32.8769 21.5468 33.167 21.4721C33.4576 21.3974 33.7445 21.3047 34.0283 21.193C34.3115 21.0812 34.6021 20.9509 34.8991 20.8021V23.1981C34.6291 23.3401 34.3575 23.4603 34.0837 23.5583C33.81 23.6563 33.5215 23.7394 33.2177 23.8072C32.9139 23.875 32.5862 23.9237 32.2354 23.9545C31.884 23.9846 31.4993 24 31.0803 24ZM40.4368 17.6244L41.5713 15.8983L44.3364 12.4467H47.8207L43.7287 17.3707L48.0844 23.7972H44.5187L41.7641 19.4314L40.5583 20.264V23.7972H37.4692V8H40.5583V15.0456L40.3966 17.6244H40.4368ZM49.7848 8.95439H54.1203C55.0519 8.95439 55.8688 9.02006 56.5716 9.15247C57.2739 9.28434 57.8609 9.49725 58.3339 9.79173C58.8063 10.0862 59.1629 10.4718 59.4023 10.949C59.6422 11.4262 59.7621 12.0135 59.7621 12.7105C59.7621 13.1305 59.7114 13.5229 59.61 13.8884C59.5085 14.2538 59.36 14.5753 59.1645 14.8528C58.9685 15.1304 58.7307 15.3623 58.4501 15.5482C58.17 15.7341 57.8477 15.8581 57.4831 15.919V16.0201C57.8546 16.1017 58.2002 16.2182 58.5214 16.3707C58.8422 16.5227 59.1222 16.7325 59.3621 16.9999C59.6015 17.2674 59.7907 17.6042 59.9291 18.0099C60.0676 18.4162 60.1368 18.9103 60.1368 19.4924C60.1368 20.1692 60.0184 20.7735 59.7822 21.3047C59.546 21.8359 59.2068 22.2861 58.7645 22.6548C58.3222 23.0239 57.7854 23.3062 57.1539 23.5027C56.5225 23.6986 55.8081 23.7972 55.0118 23.7972H49.7848V8.95439ZM52.9251 14.8327H54.5558C54.9473 14.8327 55.2749 14.7967 55.5381 14.7257C55.8017 14.6548 56.0142 14.5483 56.1764 14.4058C56.3386 14.2639 56.4548 14.0865 56.5257 13.873C56.5965 13.6601 56.6324 13.4112 56.6324 13.1268C56.6324 12.5585 56.4548 12.1507 56.1003 11.9033C55.7457 11.6565 55.1835 11.5331 54.4141 11.5331H52.9251V14.8327ZM52.9251 17.3299V21.1977H54.7682C55.1803 21.1977 55.5264 21.1506 55.8065 21.0558C56.0871 20.961 56.3132 20.826 56.4855 20.6496C56.6578 20.4737 56.7809 20.2603 56.8549 20.0103C56.9294 19.7598 56.9663 19.4823 56.9663 19.1778C56.9663 18.9002 56.9294 18.6481 56.8549 18.4215C56.7809 18.1948 56.6541 17.9999 56.4749 17.8378C56.2963 17.6752 56.0617 17.5497 55.7711 17.4618C55.481 17.3738 55.1196 17.3299 54.6873 17.3299H52.9251ZM68.075 12.2333C68.1564 12.2333 68.2457 12.2349 68.3434 12.2386C68.4417 12.2418 68.5363 12.2487 68.6272 12.2587C68.7186 12.2688 68.8026 12.2794 68.8803 12.2894C68.958 12.2995 69.0172 12.3112 69.0578 12.3249V15.2283C69.0034 15.2151 68.9294 15.2013 68.8349 15.1876C68.7403 15.1743 68.6409 15.1627 68.5363 15.1521C68.4312 15.142 68.3286 15.1351 68.2272 15.1319C68.1257 15.1288 68.0412 15.1266 67.9741 15.1266C67.5757 15.1266 67.209 15.1775 66.875 15.2792C66.5405 15.3809 66.2536 15.5451 66.0137 15.7717C65.7743 15.9984 65.5883 16.2961 65.4568 16.6647C65.3252 17.0338 65.2591 17.4856 65.2591 18.0205V23.7972H62.1701V12.4467H64.5099L64.9653 14.1521H65.1175C65.2797 13.8614 65.4552 13.5971 65.6443 13.3603C65.8335 13.1236 66.0443 12.9223 66.2774 12.756C66.5104 12.5903 66.7736 12.4621 67.0673 12.3705C67.3611 12.2794 67.6972 12.2333 68.075 12.2333ZM76.8545 23.7972L76.2568 22.2538H76.1654C75.9424 22.5584 75.72 22.8205 75.497 23.0408C75.274 23.2606 75.0309 23.4418 74.7678 23.5837C74.5041 23.7257 74.2087 23.831 73.8817 23.8983C73.554 23.9661 73.1741 24 72.7419 24C72.2827 24 71.8573 23.9274 71.4658 23.7818C71.0742 23.6361 70.7345 23.4164 70.4475 23.1219C70.1606 22.8274 69.9361 22.4551 69.7744 22.0049C69.6121 21.5552 69.5313 21.0219 69.5313 20.406C69.5313 19.2016 69.916 18.3129 70.6859 17.7409C71.4557 17.1694 72.6071 16.8527 74.1395 16.7918L75.9424 16.7309V15.8782C75.9424 15.4111 75.8077 15.0657 75.5377 14.8428C75.2677 14.6193 74.8893 14.5075 74.4032 14.5075C73.9171 14.5075 73.4426 14.5785 72.9802 14.721C72.5173 14.8629 72.0534 15.0525 71.5873 15.2892L70.5844 13.2385C71.1519 12.9202 71.7797 12.6702 72.4682 12.487C73.1572 12.3043 73.8795 12.2132 74.6362 12.2132C76.0471 12.2132 77.1292 12.5447 77.8822 13.2083C78.6352 13.8714 79.0119 14.8798 79.0119 16.2336V23.7972H76.8545ZM75.9424 18.538L74.9194 18.5787C74.5078 18.592 74.1601 18.6465 73.8764 18.7413C73.5926 18.8356 73.3649 18.9627 73.1926 19.1216C73.0204 19.281 72.8957 19.4706 72.818 19.6904C72.7403 19.9102 72.7012 20.1554 72.7012 20.4266C72.7012 20.9001 72.8164 21.2369 73.0457 21.4366C73.2756 21.6363 73.5757 21.7358 73.9472 21.7358C74.2309 21.7358 74.4941 21.6871 74.7372 21.5886C74.9802 21.4906 75.1916 21.345 75.3702 21.1522C75.5493 20.9594 75.6893 20.7227 75.7908 20.4414C75.8922 20.1607 75.9424 19.8377 75.9424 19.4722V18.538ZM81.3692 9.51261C81.3692 9.22185 81.413 8.97981 81.5007 8.78649C81.5885 8.59371 81.7084 8.438 81.8601 8.31989C82.0122 8.20126 82.1914 8.11864 82.3969 8.07097C82.603 8.02383 82.8207 8 83.0506 8C83.2799 8 83.496 8.02383 83.6989 8.07097C83.9013 8.11864 84.0788 8.20126 84.2305 8.31989C84.3827 8.438 84.5042 8.59371 84.5951 8.78649C84.6865 8.97981 84.7319 9.22185 84.7319 9.51261C84.7319 9.79702 84.6865 10.0369 84.5951 10.2334C84.5042 10.4299 84.3827 10.5872 84.2305 10.7053C84.0788 10.824 83.9013 10.9087 83.6989 10.9596C83.496 11.0099 83.2799 11.0353 83.0506 11.0353C82.8207 11.0353 82.603 11.0099 82.3969 10.9596C82.1914 10.9087 82.0122 10.824 81.8601 10.7053C81.7084 10.5872 81.5885 10.4299 81.5007 10.2334C81.413 10.0369 81.3692 9.79702 81.3692 9.51261ZM81.5007 23.7972H84.5903V12.4467H81.5007V23.7972ZM96.965 23.7972H93.8755V17.1673C93.8755 16.3485 93.7523 15.7341 93.5061 15.3247C93.2593 14.9153 92.8662 14.7104 92.3262 14.7104C91.9209 14.7104 91.5832 14.7919 91.3132 14.9545C91.0427 15.1166 90.8287 15.357 90.6696 15.6753C90.5111 15.9931 90.398 16.3856 90.3304 16.8527C90.2628 17.3198 90.2289 17.8542 90.2289 18.4569V23.7972H87.1399V12.4467H89.4997L89.9151 13.8984H90.0873C90.2495 13.6071 90.4472 13.3572 90.6802 13.1469C90.9127 12.9372 91.1679 12.7645 91.4448 12.6295C91.7217 12.4939 92.0155 12.3943 92.3262 12.3297C92.6364 12.2656 92.9539 12.2333 93.2778 12.2333C93.8316 12.2333 94.3346 12.3127 94.787 12.4722C95.2398 12.631 95.6282 12.88 95.9521 13.2184C96.276 13.5568 96.5259 13.988 96.7014 14.5128C96.8773 15.0371 96.965 15.6647 96.965 16.3962V23.7972ZM107 20.4266C107 21.0219 106.892 21.5431 106.676 21.9901C106.46 22.4365 106.152 22.8089 105.754 23.1065C105.356 23.4042 104.873 23.6277 104.306 23.7765C103.739 23.9253 103.104 24 102.401 24C102.03 24 101.686 23.9883 101.368 23.9645C101.051 23.9407 100.751 23.902 100.467 23.8475C100.183 23.7934 99.9099 23.7257 99.6462 23.6446C99.383 23.5636 99.1162 23.4619 98.8462 23.3401V20.7815C99.1299 20.9239 99.4285 21.0526 99.7429 21.1676C100.057 21.2825 100.369 21.3826 100.68 21.4668C100.99 21.5515 101.292 21.6177 101.586 21.6649C101.88 21.7125 102.152 21.7358 102.401 21.7358C102.678 21.7358 102.915 21.7104 103.11 21.6601C103.306 21.6093 103.467 21.5383 103.592 21.4467C103.716 21.3556 103.808 21.247 103.865 21.122C103.923 20.9965 103.951 20.863 103.951 20.7211C103.951 20.5786 103.929 20.452 103.886 20.3403C103.842 20.2285 103.742 20.1099 103.587 19.9849C103.431 19.8594 103.203 19.7174 102.903 19.5586C102.603 19.3991 102.199 19.2048 101.693 18.9744C101.2 18.7514 100.772 18.5295 100.411 18.3097C100.05 18.0899 99.7529 17.8442 99.5199 17.5735C99.2869 17.3029 99.113 16.993 98.9984 16.6446C98.8832 16.2961 98.8261 15.8814 98.8261 15.401C98.8261 14.873 98.9276 14.4111 99.1299 14.015C99.3323 13.6193 99.6192 13.2894 99.9907 13.0251C100.362 12.7613 100.81 12.5633 101.333 12.4314C101.857 12.2995 102.439 12.2333 103.08 12.2333C103.756 12.2333 104.397 12.3112 105.005 12.4669C105.612 12.6226 106.237 12.8561 106.878 13.1676L105.947 15.3602C105.433 15.1166 104.944 14.9169 104.478 14.7612C104.012 14.6055 103.546 14.5276 103.08 14.5276C102.661 14.5276 102.36 14.6023 102.174 14.7511C101.988 14.9 101.895 15.1033 101.895 15.3602C101.895 15.4958 101.919 15.616 101.966 15.7209C102.013 15.8258 102.108 15.9338 102.25 16.0455C102.391 16.1573 102.59 16.2791 102.847 16.411C103.104 16.5434 103.438 16.7039 103.85 16.8935C104.329 17.1032 104.762 17.3114 105.146 17.5179C105.532 17.7239 105.862 17.9596 106.139 18.2234C106.416 18.4871 106.629 18.7954 106.777 19.147C106.926 19.4992 107 19.9256 107 20.4266Z" fill="white"/>
</svg>
